<svg width="61" height="60" viewBox="0 0 61 60" fill="none" xmlns="http://www.w3.org/2000/svg">
<path d="M20.6628 6C12.9448 6 6.66675 12.2839 6.66675 20.0039V40.0039C6.66675 47.7219 12.9507 54 20.6707 54H40.6707C48.3887 54 54.6667 47.7161 54.6667 39.9961V19.9961C54.6667 12.2781 48.3828 6 40.6628 6H20.6628ZM44.6667 14C45.7707 14 46.6667 14.896 46.6667 16C46.6667 17.104 45.7707 18 44.6667 18C43.5627 18 42.6667 17.104 42.6667 16C42.6667 14.896 43.5627 14 44.6667 14ZM30.6667 18C37.2847 18 42.6667 23.382 42.6667 30C42.6667 36.618 37.2847 42 30.6667 42C24.0487 42 18.6667 36.618 18.6667 30C18.6667 23.382 24.0487 18 30.6667 18ZM30.6667 22C28.545 22 26.5102 22.8429 25.0099 24.3431C23.5096 25.8434 22.6667 27.8783 22.6667 30C22.6667 32.1217 23.5096 34.1566 25.0099 35.6569C26.5102 37.1571 28.545 38 30.6667 38C32.7885 38 34.8233 37.1571 36.3236 35.6569C37.8239 34.1566 38.6667 32.1217 38.6667 30C38.6667 27.8783 37.8239 25.8434 36.3236 24.3431C34.8233 22.8429 32.7885 22 30.6667 22Z" fill="white"/>
</svg>
