<svg width="61" height="60" viewBox="0 0 61 60" fill="none" xmlns="http://www.w3.org/2000/svg">
<path d="M56.3333 13.8741C54.4193 14.7241 52.3633 15.2961 50.2053 15.5541C52.4093 14.2341 54.0993 12.1441 54.8953 9.65207C52.8353 10.8741 50.5513 11.7621 48.1193 12.2421C46.1733 10.1681 43.4013 8.87207 40.3333 8.87207C34.4413 8.87207 29.6653 13.6501 29.6653 19.5401C29.6653 20.3761 29.7613 21.1921 29.9413 21.9701C21.0753 21.5261 13.2153 17.2781 7.9513 10.8221C7.0353 12.3981 6.5093 14.2301 6.5093 16.1881C6.5093 19.8881 8.3913 23.1541 11.2533 25.0661C9.5053 25.0101 7.8593 24.5301 6.4213 23.7321C6.4213 23.7781 6.4213 23.8201 6.4213 23.8661C6.4213 29.0361 10.0973 33.3481 14.9793 34.3261C14.0853 34.5701 13.1413 34.7001 12.1673 34.7001C11.4813 34.7001 10.8113 34.6321 10.1613 34.5101C11.5193 38.7481 15.4593 41.8341 20.1273 41.9201C16.4773 44.7821 11.8773 46.4881 6.8773 46.4881C6.0173 46.4881 5.1673 46.4381 4.3313 46.3381C9.0533 49.3641 14.6593 51.1301 20.6853 51.1301C40.3093 51.1301 51.0373 34.8741 51.0373 20.7761C51.0373 20.3141 51.0273 19.8541 51.0073 19.3961C53.0933 17.8901 54.9033 16.0121 56.3333 13.8741Z" fill="white"/>
</svg>
