<svg width="60" height="60" viewBox="0 0 60 60" fill="none" xmlns="http://www.w3.org/2000/svg">
<path d="M30 8C21.628 8 10.7617 10.0977 10.7617 10.0977L10.7344 10.1289C6.92133 10.7387 4 14.0152 4 18V30V30.0039V42V42.0039C4.00372 43.907 4.68574 45.7464 5.9236 47.1919C7.16145 48.6373 8.87406 49.5942 10.7539 49.8906L10.7617 49.9023C10.7617 49.9023 21.628 52.0039 30 52.0039C38.372 52.0039 49.2383 49.9023 49.2383 49.9023L49.2422 49.8984C51.1241 49.6026 52.8386 48.645 54.0775 47.1978C55.3163 45.7506 55.998 43.9089 56 42.0039V42V30.0039V30V18C55.9972 16.0963 55.3156 14.2559 54.0777 12.8096C52.8397 11.3633 51.1266 10.4059 49.2461 10.1094L49.2383 10.0977C49.2383 10.0977 38.372 8 30 8ZM24 20.7969L40 30L24 39.2031V20.7969Z" fill="white"/>
</svg>
